<?xml version="1.0" encoding="utf-8"?>
<!-- Generator: Adobe Illustrator 21.0.0, SVG Export Plug-In . SVG Version: 6.00 Build 0)  -->
<svg version="1.1" id="图层_1" xmlns="http://www.w3.org/2000/svg" xmlns:xlink="http://www.w3.org/1999/xlink" x="0px" y="0px"
	 viewBox="0 0 72 72" style="enable-background:new 0 0 72 72;" xml:space="preserve">
<style type="text/css">
	.st0{fill:#F5F5F5;}
	.st1{fill:#2E68F8;}
</style>
<g id="Oval-Copy">
	<circle class="st0" cx="36" cy="36" r="36"/>
</g>
<g id="Oval-6">
	<path class="st1" d="M36,35c-5,0-9-4-9-9s4-9,9-9c5,0,9,4,9,9S41,35,36,35z M36,20c-3.3,0-6,2.7-6,6s2.7,6,6,6s6-2.7,6-6
		S39.3,20,36,20z"/>
</g>
<g id="Rectangle">
	<rect x="45" y="38" class="st1" width="3" height="15"/>
</g>
<g id="Rectangle_1_">
	<polygon class="st1" points="54,44 54,47 39,47 39,44 	"/>
</g>
<path class="st1" d="M34.4,38c-9.6,0-14.8,4.5-15.3,13.4L19,53h18l0.4-3h-3.1v0H22.2c0.9-6.2,4.7-9,12.2-9h1.1v0h3.1l0.4-3H34.4z"/>
</svg>
