<?xml version="1.0" encoding="utf-8"?>
<!-- Generator: Adobe Illustrator 21.0.0, SVG Export Plug-In . SVG Version: 6.00 Build 0)  -->
<svg version="1.1" id="图层_1" xmlns="http://www.w3.org/2000/svg" xmlns:xlink="http://www.w3.org/1999/xlink" x="0px" y="0px"
	 viewBox="0 0 72 72" style="enable-background:new 0 0 72 72;" xml:space="preserve">
<style type="text/css">
	.st0{fill:#E7E9EB;}
	.st1{fill:#949AAE;}
</style>
<g id="列表图标_x2F_72px_x2F_团队1人">
	<circle id="Oval-Copy" class="st0" cx="36" cy="36" r="36"/>
	<g id="分组-copy" transform="translate(24.000000, 21.000000)">
		<path id="Oval-2-Copy" class="st1" d="M12,13.5c3,0,6-2.6,6-6.6c0-2.8-1.2-5.1-3.2-6.2C14,0.2,13.3,0,12,0c-1,0-1.3,0.1-2.1,0.4
			C7.6,1.4,6,3.9,6,6.9C6,10.9,9,13.5,12,13.5z"/>
		<path id="Combined-Shape" class="st1" d="M8.3,15.3l3.8,4.9l3.1-4.9c4.8,1.5,8.2,5.8,8.2,10.3c0,0.8-0.1,1.5-0.3,2.2
			c-0.7,0.5-1.6,1-2.1,1.1c-2.8,0.6-6,1.1-9.3,1.1c-3.3,0-7.1-0.2-9.9-1.1c-0.5-0.2-1-0.5-1.5-1C0.1,27.2,0,26.4,0,25.6
			C0,21.1,3.5,16.7,8.3,15.3z"/>
	</g>
</g>
</svg>
