<?xml version="1.0" encoding="utf-8"?>
<!-- Generator: Adobe Illustrator 21.0.0, SVG Export Plug-In . SVG Version: 6.00 Build 0)  -->
<svg version="1.1" id="图层_1" xmlns="http://www.w3.org/2000/svg" xmlns:xlink="http://www.w3.org/1999/xlink" x="0px" y="0px"
	 viewBox="0 0 72 72" style="enable-background:new 0 0 72 72;" xml:space="preserve">
<style type="text/css">
	.st0{fill:#5A85F0;}
	.st1{fill:#FFFFFF;}
</style>
<g id="列表图标_x2F_72px_x2F_最近协作">
	<g id="Oval-Copy">
		<circle class="st0" cx="36" cy="36" r="36"/>
	</g>
	<g id="Oval-2">
		<path class="st1" d="M36,54c-9.9,0-18-8.1-18-18c0-9.9,8.1-18,18-18c9.9,0,18,8.1,18,18C54,45.9,45.9,54,36,54z M36,22
			c-7.7,0-14,6.3-14,14s6.3,14,14,14s14-6.3,14-14S43.7,22,36,22z"/>
	</g>
	<g id="Combined-Shape">
		<path class="st1" d="M38,35h8v4h-8h-4V27h4V35z"/>
	</g>
</g>
</svg>
