<?xml version="1.0" encoding="utf-8"?>
<!-- Generator: Adobe Illustrator 21.0.0, SVG Export Plug-In . SVG Version: 6.00 Build 0)  -->
<svg version="1.1" id="图层_1" xmlns="http://www.w3.org/2000/svg" xmlns:xlink="http://www.w3.org/1999/xlink" x="0px" y="0px"
	 viewBox="0 0 72 72" style="enable-background:new 0 0 72 72;" xml:space="preserve">
<style type="text/css">
	.st0{fill:#63A4F8;}
	.st1{fill:#FFFFFF;}
</style>
<g id="列表图标_x2F_72px_x2F_w">
	<circle id="Oval" class="st0" cx="36" cy="36" r="36"/>
	<g id="Group" transform="translate(22.000000, 23.000000)">
		<path id="Combined-Shape-Copy" class="st1" d="M14.2,7.9c-0.5,0-1,0.3-1.3,0.7L4,19V2c0-1.1-0.9-2-2-2S0,0.9,0,2v22
			c0,0.1,0,0.1,0,0.2c-0.1,0.6,0.1,1.2,0.7,1.7c0,0,0,0,0,0c0.8,0.7,2,0.6,2.7-0.2l11.1-13l11,13c0.7,0.8,1.9,0.9,2.8,0.2
			c0,0,0,0,0,0c0.5-0.4,0.7-1.1,0.7-1.7c0-0.1,0-0.1,0-0.2V2c0-1.1-0.9-2-2-2s-2,0.9-2,2v16.9L16.2,8.5C15.7,8,14.9,7.7,14.2,7.9z"
			/>
	</g>
</g>
</svg>
