<?xml version="1.0" encoding="utf-8"?>
<!-- Generator: Adobe Illustrator 21.0.0, SVG Export Plug-In . SVG Version: 6.00 Build 0)  -->
<svg version="1.1" id="图层_1" xmlns="http://www.w3.org/2000/svg" xmlns:xlink="http://www.w3.org/1999/xlink" x="0px" y="0px"
	 viewBox="0 0 72 72" style="enable-background:new 0 0 72 72;" xml:space="preserve">
<style type="text/css">
	.st0{fill:#FED634;}
	.st1{fill:#FFFFFF;}
</style>
<g id="列表图标_x2F_60px_x2F_便签">
	<circle id="Oval" class="st0" cx="36" cy="36" r="36"/>
	<path id="Combined-Shape" class="st1" d="M27.4,47.9l17.2-16.8c0.5-0.5,0.5-1.4,0-1.9s-1.4-0.5-1.9,0L25.6,45.9
		c0.7-7.3,3.2-13.3,7.7-17.9c4.5-4.7,10.8-7.4,18.9-8c0.9-0.1,1.8,0.6,1.8,1.5c0,0.1,0,0.2,0,0.3c-0.8,7.8-3.5,14-8.1,18.5
		C41.2,44.9,35.1,47.4,27.4,47.9z M25.3,48.1c0.6,0.6,0.6,1.7,0,2.3c0,0,0,0,0,0L23.5,52H19l3.9-3.9C23.5,47.5,24.6,47.4,25.3,48.1
		C25.3,48.1,25.3,48.1,25.3,48.1z"/>
</g>
</svg>
