<?xml version="1.0" encoding="utf-8"?>
<!-- Generator: Adobe Illustrator 21.0.0, SVG Export Plug-In . SVG Version: 6.00 Build 0)  -->
<svg version="1.1" id="图层_1" xmlns="http://www.w3.org/2000/svg" xmlns:xlink="http://www.w3.org/1999/xlink" x="0px" y="0px"
	 viewBox="0 0 72 72" style="enable-background:new 0 0 72 72;" xml:space="preserve">
<style type="text/css">
	.st0{fill:#FF5E5E;}
	.st1{fill:#FFFFFF;}
</style>
<g id="列表图标_x2F_72px_x2F_pdf-">
	<circle id="Oval" class="st0" cx="36" cy="36" r="36"/>
	<path id="Fill-1" class="st1" d="M35,38h-4.5c-5,0-9.5,1.3-9.5,6.8s4.5,7.2,9.5,7.2H35v-8.2V38z M31,48c-3.7,0-6,0-6-3
		c0-3.1,2.3-3,6-3V48z"/>
	<path id="Fill-4" class="st1" d="M39,38c6,0,8-3.5,8-7s-2-7-8-7c0.2,0-1.1,0-4,0c0,1.9,0,3.9,0,6.9c0,2.9,0,4.7,0,7.1
		C33.6,38,35,38,39,38z M31,42c0-1.6,0-22,0-22l8,0c2,0,12,0,12,11s-7.9,11-12,11H31z"/>
	<polygon id="Rectangle-22-Copy" class="st0" points="30.5,36 38,36 38,38 30.5,38 	"/>
	<polygon id="Rectangle-22-Copy-2" class="st0" points="30.6,42 35.7,42 35.7,44 30.6,44 	"/>
</g>
</svg>
