<?xml version="1.0" encoding="utf-8"?>
<!-- Generator: Adobe Illustrator 21.0.0, SVG Export Plug-In . SVG Version: 6.00 Build 0)  -->
<svg version="1.1" id="图层_1" xmlns="http://www.w3.org/2000/svg" xmlns:xlink="http://www.w3.org/1999/xlink" x="0px" y="0px"
	 viewBox="0 0 72 72" style="enable-background:new 0 0 72 72;" xml:space="preserve">
<style type="text/css">
	.st0{fill:#B0A7DE;}
	.st1{fill:#FFFFFF;}
</style>
<circle id="Oval" class="st0" cx="36" cy="36" r="36"/>
<g>
	<path id="Oval-2" class="st1" d="M25.3,31.8c2.2,0,4,1.8,4,4c0,2.2-1.8,4-4,4s-4-1.8-4-4C21.3,33.6,23.1,31.8,25.3,31.8 M25.3,27.8
		c-4.4,0-8,3.6-8,8s3.6,8,8,8s8-3.6,8-8S29.7,27.8,25.3,27.8L25.3,27.8z"/>
	<path class="st1" d="M48.9,23.3c1,0,1.8,0.8,1.8,1.8c0,1-0.8,1.8-1.8,1.8h-4.8c-1,0-1.8-0.8-1.8-1.8c0-1,0.8-1.8,1.8-1.8H48.9
		 M48.9,19.3h-4.8c-3.2,0-5.8,2.6-5.8,5.8s2.6,5.8,5.8,5.8h4.8c3.2,0,5.8-2.6,5.8-5.8S52.1,19.3,48.9,19.3L48.9,19.3z"/>
	<path class="st1" d="M48.9,45.1c1,0,1.8,0.8,1.8,1.8c0,1-0.8,1.8-1.8,1.8h-4.8c-1,0-1.8-0.8-1.8-1.8c0-1,0.8-1.8,1.8-1.8H48.9
		 M48.9,41.1h-4.8c-3.2,0-5.8,2.6-5.8,5.8s2.6,5.8,5.8,5.8h4.8c3.2,0,5.8-2.6,5.8-5.8S52.1,41.1,48.9,41.1L48.9,41.1z"/>
	<path class="st1" d="M39,44.6c-3.3-1.6-5.7-5-5.7-9s2.3-7.4,5.7-9v-4.1c-5.6,1.8-9.7,7.1-9.7,13.3s4.1,11.5,9.7,13.3V44.6z"/>
</g>
</svg>
