<?xml version="1.0" encoding="utf-8"?>
<!-- Generator: Adobe Illustrator 21.0.0, SVG Export Plug-In . SVG Version: 6.00 Build 0)  -->
<svg version="1.1" id="图层_1" xmlns="http://www.w3.org/2000/svg" xmlns:xlink="http://www.w3.org/1999/xlink" x="0px" y="0px"
	 viewBox="0 0 72 72" style="enable-background:new 0 0 72 72;" xml:space="preserve">
<style type="text/css">
	.st0{fill:#B0A7DE;}
	.st1{fill:#FFFFFF;}
</style>
<g id="列表图标_x2F_60px_x2F_流程图">
	<g id="Oval">
		<circle class="st0" cx="36" cy="36" r="36"/>
	</g>
	<g id="Group" transform="translate(19.000000, 20.000000)">
		<g id="Rectangle-Copy">
			<path class="st1" d="M28.9,33h-4c-3.3,0-6.1-2.7-6.1-6.1c0-3.3,2.7-6.1,6.1-6.1h4c3.3,0,6.1,2.7,6.1,6.1C35,30.3,32.3,33,28.9,33
				z M24.9,24.2c-1.5,0-2.7,1.2-2.7,2.7s1.2,2.7,2.7,2.7h4c1.5,0,2.7-1.2,2.7-2.7s-1.2-2.7-2.7-2.7H24.9z"/>
		</g>
		<g id="Rectangle">
			<path class="st1" d="M10,17.5L0,9.8l10-7.9L20,9.6L10,17.5z M5.5,9.8l4.5,3.5l4.6-3.6l-4.5-3.5L5.5,9.8z"/>
		</g>
		<g id="Combined-Shape">
			<path class="st1" d="M11.4,15.5v9.4h9.4v3.4h-9.4c-1.9,0-3.3-1.5-3.3-3.4v-9.4H11.4z"/>
		</g>
		<g id="Rectangle-85">
			<polygon class="st1" points="21.5,8.1 24.9,8.1 24.9,10.8 21.5,10.8 			"/>
		</g>
		<g id="Rectangle-5">
			<polygon class="st1" points="28.9,14.8 31.6,14.8 31.6,18.2 28.9,18.2 			"/>
		</g>
		<g id="Rectangle-85-Copy">
			<polygon class="st1" points="29.1,8.5 31.4,10.9 29.5,12.8 27.1,10.4 			"/>
		</g>
	</g>
</g>
</svg>
