<?xml version="1.0" encoding="utf-8"?>
<!-- Generator: Adobe Illustrator 21.0.0, SVG Export Plug-In . SVG Version: 6.00 Build 0)  -->
<svg version="1.1" id="图层_1" xmlns="http://www.w3.org/2000/svg" xmlns:xlink="http://www.w3.org/1999/xlink" x="0px" y="0px"
	 viewBox="0 0 72 72" style="enable-background:new 0 0 72 72;" xml:space="preserve">
<style type="text/css">
	.st0{fill:#FF9158;}
	.st1{fill:#FFFFFF;}
</style>
<g id="列表图标_x2F_72px_x2F_p-">
	<circle id="Oval" class="st0" cx="36" cy="36" r="36"/>
	<g id="Group" transform="translate(23.000000, 24.000000)">
		<path id="Combined-Shape" class="st1" d="M21,15.9L21,15.9L4,16v10c0,1.1-0.9,2-2,2s-2-0.9-2-2V14c0-1.1,0.9-2,2-2c0,0,0,0,0,0h18
			c2.2,0,3.9-1.8,3.9-4c0-2-1.5-3.7-3.4-4H2C0.9,4,0,3.1,0,2s0.9-2,2-2h18.8v0c4,0.4,7.2,3.8,7.2,8C28,12.1,24.9,15.4,21,15.9z"/>
	</g>
</g>
</svg>
