<?xml version="1.0" encoding="utf-8"?>
<!-- Generator: Adobe Illustrator 21.0.0, SVG Export Plug-In . SVG Version: 6.00 Build 0)  -->
<svg version="1.1" id="图层_1" xmlns="http://www.w3.org/2000/svg" xmlns:xlink="http://www.w3.org/1999/xlink" x="0px" y="0px"
	 viewBox="0 0 72 72" style="enable-background:new 0 0 72 72;" xml:space="preserve">
<style type="text/css">
	.st0{fill:#5A85F0;}
	.st1{fill:#FFFFFF;}
</style>
<g id="移动端图标_x2F_72px_x2F_团队文件夹">
	<circle id="Oval" class="st0" cx="36" cy="36" r="36"/>
	<path id="Fill-1" class="st1" d="M22.2,51c-1.8,0-3.2-1.4-3.2-3.2V24.2c0-1.8,1.5-3.2,3.2-3.2h6.4l1.9,3.2c0.3-0.1,20.2,0,20.2,0
		c1.5,0,2.8,1.1,3.2,2.5L54,47.8c0,1.8-1.5,3.2-3.2,3.2H22.2z"/>
	<g id="分组" transform="translate(29.000000, 28.000000)">
		<path id="Oval-2-Copy" class="st0" d="M8,9c2,0,4-1.7,4-4.4c0-1.9-0.8-3.4-2.1-4.1C9.3,0.1,8.9,0,8,0C7.3,0,7.1,0.1,6.6,0.3
			C5,0.9,4,2.6,4,4.6C4,7.3,6,9,8,9z"/>
		<path id="Combined-Shape" class="st0" d="M5.6,10.2l2.5,3.3l2.1-3.3c3.2,1,5.5,3.9,5.5,6.9c0,0.5-0.1,1-0.2,1.5
			c-0.5,0.3-1,0.7-1.4,0.7c-1.9,0.4-4,0.7-6.2,0.7s-4.7-0.1-6.6-0.7c-0.3-0.1-0.7-0.4-1-0.7c-0.1-0.5-0.2-1-0.2-1.5
			C0,14.1,2.3,11.1,5.6,10.2z"/>
	</g>
</g>
</svg>
