<?xml version="1.0" encoding="utf-8"?>
<!-- Generator: Adobe Illustrator 21.0.0, SVG Export Plug-In . SVG Version: 6.00 Build 0)  -->
<svg version="1.1" id="图层_1" xmlns="http://www.w3.org/2000/svg" xmlns:xlink="http://www.w3.org/1999/xlink" x="0px" y="0px"
	 viewBox="0 0 72 72" style="enable-background:new 0 0 72 72;" xml:space="preserve">
<style type="text/css">
	.st0{fill:#5A85F0;}
	.st1{fill:#FFFFFF;}
</style>
<g id="移动端图标_x2F_72px_x2F_团队">
	<circle id="Oval" class="st0" cx="36" cy="36" r="36"/>
	<g id="分组" transform="translate(18.000000, 20.000000)">
		<path id="Combined-Shape" class="st1" d="M22.7,14.6c0.8,0.6,2.3,1.6,4.4,3l0.4-2.9c4.5,1.3,7.9,5.8,7.9,10.2
			c0,0.7-0.1,1.4-0.3,2.1c-0.6,0.5-1.4,1-1.9,1.1c-2.5,0.6-5.4,1-8.5,1c-0.8,0-1.6,0-2.4,0c0.1-0.5,0.1-1,0.1-1.5
			c0-3.8-2.1-7.7-5.1-9.9C18.8,16.3,20.6,15.1,22.7,14.6z"/>
		<path id="Combined-Shape_1_" class="st1" d="M7.5,17.7L8,20.5l4-3.1c4.9,0.9,8.7,5.7,8.7,10.4c0,0.7-0.1,1.4-0.3,2.1
			c-0.6,0.5-1.4,1-1.9,1.1c-2.5,0.6-5.3,1-8.4,1c-3.2,0.1-6.1-0.2-8.6-1c-0.5-0.2-0.9-0.5-1.4-0.9C0.1,29.3,0,28.6,0,27.8
			C0,23.4,3.2,19.1,7.5,17.7z"/>
		<path id="Oval-2-Copy" class="st1" d="M10,16.7c2.9,0,5.9-2.5,5.9-6.4c0-2.7-1.2-5-3.1-6.1C12,3.7,11.3,3.5,10,3.5
			c-1,0-1.3,0.1-2,0.4c-2.3,1-3.9,3.4-3.9,6.4C4.2,14.2,7.1,16.7,10,16.7z"/>
		<path id="Oval-2-Copy-8" class="st1" d="M23.9,13.2c2.9,0,5.9-2.5,5.9-6.4c0-2.7-1.2-5-3.1-6.1C25.8,0.2,25.2,0,23.9,0
			c-1,0-1.3,0.1-2,0.4c-2.3,1-3.9,3.4-3.9,6.4C18,10.7,20.9,13.2,23.9,13.2z"/>
	</g>
</g>
</svg>
