<?xml version="1.0" encoding="utf-8"?>
<!-- Generator: Adobe Illustrator 21.0.0, SVG Export Plug-In . SVG Version: 6.00 Build 0)  -->
<svg version="1.1" id="图层_1" xmlns="http://www.w3.org/2000/svg" xmlns:xlink="http://www.w3.org/1999/xlink" x="0px" y="0px"
	 viewBox="0 0 72 72" style="enable-background:new 0 0 72 72;" xml:space="preserve">
<style type="text/css">
	.st0{fill:#2ABCFA;}
	.st1{fill:#FFFFFF;}
</style>
<g id="列表图标_x2F_60px_x2F_TXT">
	<circle id="Oval-Copy-8" class="st0" cx="36" cy="36" r="36"/>
	<path id="Combined-Shape-Copy-4" class="st1" d="M50,22c1.1,0,2,0.9,2,2c0,1.1-0.9,2-2,2c0,0,0,0,0,0l0,0c0,0,0,0,0,0c0,0,0,0,0,0
		l-12,0l0,21.9c0,0.1,0,0.1,0,0.2c0,1.1-0.9,2-2,2c-1,0-1.9-0.8-2-1.8c0-0.1,0-0.1,0-0.2l0-22H22c0,0,0,0,0,0c0,0,0,0,0,0
		c-1.1,0-2-0.9-2-2s0.9-2,2-2L50,22C50,22,50,22,50,22z"/>
</g>
</svg>
