<?xml version="1.0" encoding="utf-8"?>
<!-- Generator: Adobe Illustrator 21.0.0, SVG Export Plug-In . SVG Version: 6.00 Build 0)  -->
<svg version="1.1" id="图层_1" xmlns="http://www.w3.org/2000/svg" xmlns:xlink="http://www.w3.org/1999/xlink" x="0px" y="0px"
	 viewBox="0 0 72 72" style="enable-background:new 0 0 72 72;" xml:space="preserve">
<style type="text/css">
	.st0{fill:#B0A7DE;}
	.st1{fill:#FFFFFF;}
</style>
<g id="列表图标_x2F_60px_x2F_未知文件">
	<circle id="Oval-Copy-3" class="st0" cx="36" cy="36" r="36"/>
	<path id="_x3F_" class="st1" d="M37.5,18c3.2,0,5.6,1.2,7.5,3c1.9,1.7,3,4.9,3,7.9c0,0.1,0,0.2,0,0.3c0,4.3-4.7,7-6.9,8.8
		c-1.1,0.9-3,2.1-3.6,2.6l0,4.2h-4.2l0-4c0-1.6,0.3-0.7,0.9-1.5c1.3-1.3,3-2.4,5.7-4.8c0.8-0.8,3.9-2.8,3.9-5.7c0-2-0.7-3.8-1.8-4.9
		c-1.2-1.2-1.9-1.9-4.5-1.9c-3.3,0-5.5,1-6.8,2.7c-1.1,1.4-1.6,3.1-1.6,5.6H25c0-3.5,1.3-6.2,3.2-8.3C30.3,19.9,34,18,37.5,18z
		 M35.5,48.1c0.9,0,1.6,0.2,2.2,0.8c0.6,0.5,0.9,1.2,0.9,2.1c0,0.9-0.3,1.6-0.9,2.1c-0.6,0.5-1.4,0.8-2.2,0.8
		c-0.9,0-1.6-0.3-2.2-0.8c-0.6-0.6-0.9-1.3-0.9-2.1s0.3-1.5,0.9-2.1C33.9,48.4,34.6,48.1,35.5,48.1z"/>
</g>
</svg>
