<svg id="图层_1" data-name="图层 1" xmlns="http://www.w3.org/2000/svg" viewBox="0 0 72 72"><defs><style>.cls-1{fill:#45c660;}.cls-2{fill:#fff;}</style></defs><title>wechat</title><circle id="Oval-Copy-5" class="cls-1" cx="36" cy="36" r="36"/><path id="Shape" class="cls-2" d="M50.2,39.9a1.73,1.73,0,0,1-1.5-1.7,1.82,1.82,0,0,1,1.5-1.7,1.71,1.71,0,1,1,0,3.4m-8.3,0a1.66,1.66,0,0,1-1.5-1.7,1.82,1.82,0,0,1,1.5-1.7,1.74,1.74,0,0,1,1.9,1.7,1.87,1.87,0,0,1-1.9,1.7M59,42c0-6.8-6.1-12.3-12.9-12.3-7.2,0-12.9,5.5-12.9,12.3s5.7,12.3,12.9,12.3a19.33,19.33,0,0,0,4.6-.8L54.9,56l-1.1-4.2c2.9-2.6,5.2-6,5.2-9.8M26.3,28.4a2.11,2.11,0,1,1,0-4.2,1.85,1.85,0,0,1,1.9,2.1,1.9,1.9,0,0,1-1.9,2.1m10.6-4.2a1.9,1.9,0,0,1,1.9,2.1,1.9,1.9,0,0,1-1.9,2.1,2.29,2.29,0,0,1-2.3-2.1,2.22,2.22,0,0,1,2.3-2.1m8.2,4.6a7.57,7.57,0,0,1,1.5.1C45.2,22.1,38.7,17,31.2,17,22.8,17,16,23.3,16,31.4c0,4.7,2.3,8.5,6.1,11.4l-1.5,5.1,5.3-3a24.29,24.29,0,0,0,5.3.8,6.15,6.15,0,0,0,1.4-.1,14.87,14.87,0,0,1-.5-3.6,13.21,13.21,0,0,1,13-13.2"/></svg>