<?xml version="1.0" encoding="UTF-8"?>
<svg width="512px" height="512px" viewBox="0 0 512 512" version="1.1" xmlns="http://www.w3.org/2000/svg" xmlns:xlink="http://www.w3.org/1999/xlink">
    <!-- Generator: Sketch 49 (51002) - http://www.bohemiancoding.com/sketch -->
    <title>wps精品课 logo full colour</title>
    <desc>Created with Sketch.</desc>
    <defs></defs>
    <g id="Page-1" stroke="none" stroke-width="1" fill="none" fill-rule="evenodd">
        <g id="wps精品课-logo-full-colour">
            <circle id="Oval" fill="#E2CF04" cx="256" cy="256" r="256"></circle>
            <path d="M391.9,204.4 L261.9,129.4 C260.5,128.6 259,128.2 257.5,128 C257.4,128 257.3,128 257.2,128 C257,128 256.8,128 256.6,128 C256.4,128 256.2,128 256,128 C255.9,128 255.8,128 255.7,128 C254.2,128.1 252.7,128.6 251.3,129.4 L121.7,204.2 C121,204.6 120.3,205 119.7,205.6 C119.7,205.6 119.6,205.6 119.6,205.7 C119.5,205.8 119.3,206 119.2,206.1 C119.1,206.2 118.9,206.4 118.8,206.5 C118.8,206.5 118.8,206.6 118.7,206.6 C117.8,207.7 117.1,208.9 116.6,210.2 C116.6,210.3 116.6,210.3 116.5,210.4 C116.4,210.7 116.3,210.9 116.3,211.2 C116.3,211.3 116.3,211.4 116.2,211.5 C116.2,211.7 116.1,211.9 116.1,212.1 C116.1,212.2 116.1,212.4 116,212.5 C116,212.7 116,212.9 116,213.1 C116,213.3 116,213.4 116,213.6 C116,213.8 116,213.9 116,214.1 C116,214.3 116,214.5 116,214.7 C116,214.8 116,215 116.1,215.1 C116.1,215.3 116.2,215.5 116.2,215.7 C116.2,215.8 116.2,215.9 116.3,216 C116.4,216.3 116.4,216.5 116.5,216.8 C116.5,216.9 116.5,216.9 116.6,217 C117,218.3 117.7,219.5 118.7,220.6 C118.7,220.6 118.7,220.7 118.8,220.7 C118.9,220.8 119.1,221 119.2,221.1 C119.3,221.2 119.5,221.4 119.6,221.5 C119.6,221.5 119.7,221.5 119.7,221.6 C120.3,222.1 121,222.6 121.7,223 L251.3,297.8 C252.4,298.4 253.6,298.8 254.8,299 C254.8,299 254.9,299 254.9,299 C255.2,299 255.4,299.1 255.7,299.1 C255.8,299.1 255.9,299.1 256,299.1 C256.2,299.1 256.4,299.1 256.6,299.1 C256.8,299.1 257,299.1 257.2,299.1 C257.3,299.1 257.4,299.1 257.5,299.1 C257.8,299.1 258,299 258.3,299 C258.3,299 258.4,299 258.4,299 C259.6,298.8 260.8,298.4 261.9,297.8 L323.7,262.1 L323.7,321.9 L256.7,360.6 L188.7,321.3 L188.7,284.1 C188.7,278.3 184,273.7 178.3,273.7 L178.1,273.7 C172.3,273.7 167.7,278.4 167.7,284.1 L167.7,328.3 C167.7,333.5 171.5,337.8 176.5,338.6 L251.4,381.8 C251.6,381.9 251.8,382 252.1,382.1 C252.1,382.1 252.1,382.1 252.1,382.1 C252.4,382.2 252.7,382.4 253,382.5 C253,382.5 253,382.5 253.1,382.5 C253.4,382.6 253.7,382.7 254,382.8 C254,382.8 254.1,382.8 254.1,382.8 C254.4,382.9 254.6,382.9 254.9,383 C255,383 255,383 255.1,383 C255.3,383 255.6,383.1 255.8,383.1 C255.9,383.1 256,383.1 256.2,383.1 C256.4,383.1 256.6,383.1 256.7,383.1 C256.9,383.1 257.1,383.1 257.2,383.1 C257.3,383.1 257.4,383.1 257.6,383.1 C257.8,383.1 258.1,383.1 258.3,383 C258.4,383 258.4,383 258.5,383 C258.8,383 259,382.9 259.3,382.8 C259.3,382.8 259.4,382.8 259.4,382.8 C259.7,382.7 260,382.6 260.3,382.5 C260.3,382.5 260.3,382.5 260.4,382.5 C260.7,382.4 261,382.3 261.3,382.1 C261.3,382.1 261.3,382.1 261.3,382.1 C261.5,382 261.7,381.9 262,381.8 L337.5,338.2 C339.5,337.6 341.2,336.4 342.4,334.8 C344.9,332.1 345.8,328.2 344.7,324.6 L344.7,246.7 C345.5,244 345.3,241 343.8,238.4 L343.8,238.3 C340.9,233.3 334.5,231.6 329.5,234.5 L256.7,276.5 L147.7,213.5 L256.7,150.6 L375.7,219.3 L375.7,268.1 C375.7,273.9 380.4,278.5 386.1,278.5 L386.3,278.5 C392.1,278.5 396.7,273.8 396.7,268.1 L396.7,216.5 C398.1,212 396.2,206.9 391.9,204.4 Z" id="Shape" fill="#FFFFFF" fill-rule="nonzero"></path>
        </g>
    </g>
</svg>