<?xml version="1.0" encoding="utf-8"?>
<!-- Generator: Adobe Illustrator 21.0.0, SVG Export Plug-In . SVG Version: 6.00 Build 0)  -->
<svg version="1.1" id="图层_1" xmlns="http://www.w3.org/2000/svg" xmlns:xlink="http://www.w3.org/1999/xlink" x="0px" y="0px"
	 viewBox="0 0 72 72" style="enable-background:new 0 0 72 72;" xml:space="preserve">
<style type="text/css">
	.st0{fill:#64CA93;}
	.st1{fill:#FFFFFF;}
</style>
<g id="列表图标_x2F_72px_x2F_S">
	<circle id="Oval" class="st0" cx="36" cy="36" r="36"/>
	<g id="Group" transform="translate(23.000000, 22.000000)">
		<path id="Combined-Shape" class="st1" d="M8,16c-4.4-0.2-8-3.7-8-8s3.6-7.8,8-8v0h16c1.1,0,2,0.9,2,2s-0.9,2-2,2H8.3
			C6,4,4.2,5.8,4.2,8s1.9,4,4.2,4v0h10.4v0c4.6,0,8.3,3.6,8.3,8c0,4.3-3.6,7.8-8,8V28H2c-1.1,0-2-0.9-2-2s0.9-2,2-2h16.7v-0.1
			c2.3,0,4.2-1.8,4.2-4c0-2.1-1.7-3.8-3.8-4v0L8,16L8,16z"/>
	</g>
</g>
</svg>
